<svg id="svg8" width="210mm" height="297mm" viewBox="0 0 210 297">
  <g id="layer1">
    <path style="fill:none;fill-rule:evenodd;stroke:#000000;stroke-width:0.26458332" id="path14" d="M103.9-142.22c1.24-2.7 4.25.34 4.5 2.06.64 4.67-4.63 7.42-8.62 6.93-7.14-.87-10.83-8.64-9.37-15.16 2.15-9.56 12.72-14.3 21.72-11.8 12 3.34 17.82 16.8 14.24 28.26-4.5 14.43-20.9 21.35-34.82 16.68-12.33-4.14-20.58-16.06-21.03-28.93" transform="scale(1 -1)"/>
    <path style="fill:none;stroke:#000000;stroke-width:0.26458332px;stroke-linecap:butt;stroke-linejoin:miter;stroke-opacity:1" id="path24" d="M70.52 144.18l-.04 41.7"/>
    <path style="fill:none;stroke:#000000;stroke-width:0.21200448px;stroke-linecap:butt;stroke-linejoin:miter;stroke-opacity:1" id="path30-3" d="M70.44 185.88c.62 11.31 1.82 14.11 1.82 14.11s1.65 5.7 4.58 1.62c4.06-4.1 9.43-31.35 9.43-31.35"/>
    <path style="fill:none;fill-rule:evenodd;stroke:#000000;stroke-width:0.26458332" id="path14-7" d="M110.59-162.82c10.99-3.41 22.18 4.26 25.07 14.94 3.7 13.68-5.87 27.34-19.21 30.6-1.62.4-3.26.65-4.92.75" transform="matrix(0 -.39397 .15896 0 104.8 214.2)"/>
    <path style="fill:none;stroke:#000000;stroke-width:0.21200448px;stroke-linecap:butt;stroke-linejoin:miter;stroke-opacity:1" id="path30-3-5" d="M70.44 185.88c-.61 11.31-1.81 14.11-1.81 14.11s-1.65 5.7-4.58 1.62c-4.07-4.1-9.43-31.35-9.43-31.35"/>
    <path style="fill:none;fill-rule:evenodd;stroke:#000000;stroke-width:0.26458332" id="path14-7-3" d="M110.59-162.82c10.99-3.41 22.18 4.26 25.07 14.94 3.7 13.68-5.87 27.34-19.21 30.6-1.62.4-3.26.65-4.92.75" transform="matrix(0 -.39397 -.15896 0 36.1 214.2)"/>
  </g>
</svg>
