<?xml version="1.0" encoding="UTF-8" standalone="no"?>
<!-- Created with Inkscape (http://www.inkscape.org/) -->

<svg
   xmlns:dc="http://purl.org/dc/elements/1.1/"
   xmlns:cc="http://creativecommons.org/ns#"
   xmlns:rdf="http://www.w3.org/1999/02/22-rdf-syntax-ns#"
   xmlns:svg="http://www.w3.org/2000/svg"
   xmlns="http://www.w3.org/2000/svg"
   xmlns:sodipodi="http://sodipodi.sourceforge.net/DTD/sodipodi-0.dtd"
   xmlns:inkscape="http://www.inkscape.org/namespaces/inkscape"
   version="1.1"
   id="svg80"
   width="600"
   height="344"
   viewBox="0 0 600 344"
   sodipodi:docname="bleum_logo.svg"
   inkscape:version="0.92.4 (33fec40, 2019-01-16)">
  <metadata
     id="metadata86">
    <rdf:RDF>
      <cc:Work
         rdf:about="">
        <dc:format>image/svg+xml</dc:format>
        <dc:type
           rdf:resource="http://purl.org/dc/dcmitype/StillImage" />
        <dc:title />
      </cc:Work>
    </rdf:RDF>
  </metadata>
  <defs
     id="defs84" />
  <sodipodi:namedview
     pagecolor="#ffffff"
     bordercolor="#666666"
     borderopacity="1"
     objecttolerance="10"
     gridtolerance="10"
     guidetolerance="10"
     inkscape:pageopacity="0"
     inkscape:pageshadow="2"
     inkscape:window-width="1366"
     inkscape:window-height="768"
     id="namedview82"
     showgrid="false"
     inkscape:zoom="0.90032781"
     inkscape:cx="285.18026"
     inkscape:cy="150.54526"
     inkscape:window-x="0"
     inkscape:window-y="0"
     inkscape:window-maximized="1"
     inkscape:current-layer="svg80" />
  <path
     style="fill:none;stroke:#000000;stroke-width:1px;stroke-linecap:butt;stroke-linejoin:miter;stroke-opacity:1"
     d="m 125.73988,33.658581 -0.3927,6.675799 c -0.66628,3.082351 -0.0674,1.448286 -1.87227,6.724142 -1.8049,5.275857 -24.712352,50.722297 -24.712352,50.722297 L 57.756741,184.89129 c 0,0 -46.371999,104.40641 -34.70958,84.69137 11.662419,-19.71504 18.048982,-37.48635 26.934634,-48.87109 8.885652,-11.38474 25.268574,-14.99454 25.268574,-14.99454 0,0 8.052623,-1.66606 15.827569,1.66606 7.774945,3.33212 12.217772,10.82939 12.217772,10.82939 0,0 3.88747,5.55354 3.05444,13.0508 -0.83303,7.49727 -2.49909,17.77131 -5.83121,23.60252 -3.332116,5.83121 -4.998176,9.441 -15.549888,20.82574 -10.551712,11.38475 -13.606156,15.5499 -22.769485,19.99272 -6.664239,3.19329 -12.495449,-0.83303 -12.495449,-0.83303 0,0 -2.199257,-5.47843 2.082576,-13.32847 4.165149,-7.63611 5.553532,-9.71868 10.968226,-16.38293 6.704322,-8.25148 23.17946,-23.84495 30.54443,-29.85024 7.79281,-6.35414 13.88384,-12.77312 23.60252,-15.54988 7.77494,-3.47096 30.40559,-3.05445 30.40559,-3.05445 0,0 5.13701,0.13884 7.6361,-5.13702 2.49909,-5.27585 75.23064,-180.557187 75.23064,-180.557187 0,0 0.91147,-0.628014 -0.71802,3.411054 -2.1113,3.477159 -15.87825,38.131275 -24.51752,58.551366 -8.63927,20.420097 -53.35875,124.206347 -53.35875,124.206347 0,0 -11.08662,27.34974 -14.92237,40.44748 -0.0516,0.17611 -0.0722,0.35918 -0.12947,0.53015 -2.53128,7.55007 -3.91282,19.21132 -2.34171,24.07074 3.14155,7.46119 14.60114,6.81055 21.66963,2.09823 7.06849,-4.71233 24.13673,-22.09771 29.8883,-27.4845 4.74436,-4.44346 12.33618,-6.83846 17.83389,-6.44576 6.01902,0.79217 10.40587,1.29835 17.16761,-1.13453 5.46764,-1.96727 17.04881,-12.0728 24.71591,-22.20117 2.65261,-3.50415 5.10093,-8.39545 5.10093,-12.70096 0,-1.96347 -1.59459,-5.81895 -6.69961,-6.60434 -5.10503,-0.78539 -12.19734,1.70961 -16.90966,5.63656 -4.85117,3.92694 -10.75724,8.95232 -16.07665,17.92508 -5.3194,7.72321 -11.77673,21.6812 -13.48635,27.89284 -1.70961,4.68442 -4.1685,12.41725 -3.98858,17.75145 0,0 -0.0139,4.9081 6.12458,9.32302 4.05591,2.05467 2.31839,2.36603 7.81611,3.34776 5.63656,0.98174 12.76256,1.37443 20.61644,-1.76712 7.85388,-3.14155 24.15778,-10.54322 35.53881,-20.0274 7.0685,-5.89041 11.54099,-9.75827 14.45659,-13.5069 2.91561,-3.74864 6.24773,-8.74682 9.0245,-15.13338 5.13701,-10.27404 3.60979,-8.3303 6.5254,-14.8557 2.9156,-6.5254 16.52175,-32.07165 16.52175,-32.07165 0,0 -17.35478,32.07165 -20.82574,41.37382 -3.47096,9.30216 -7.21959,19.85388 -7.63611,24.2967 -0.41651,4.44283 -1.1107,7.2196 0.41652,10.55172 1.52722,3.33212 2.77676,3.33211 5.27585,4.02631 2.49909,0.69419 8.35004,-1.90596 12.79286,-5.23808 8.76247,-6.08098 75.09179,-73.20558 70.37129,-67.51321 -4.7205,5.69237 -11.148,12.22911 -14.57802,18.4655 -3.05444,5.55354 -6.57287,12.00935 -8.46913,24.01903 -1.24955,7.91378 -0.97187,14.99454 -0.27768,18.74318 0.97187,3.47095 0.69343,6.4482 4.54798,10.13519 6.61484,6.32729 24.99668,4.36558 29.08458,3.59992 13.46731,-2.2214 22.67408,-8.90824 29.8921,-15.00849 6.10616,-5.16057 12.43793,-12.76903 16.3254,-18.18372 9.23649,-12.6935 17.05909,-25.8042 17.05909,-25.8042 0,0 -4.99818,22.35297 -11.24591,35.82029 -6.24772,13.46732 -16.38292,31.09978 -16.38292,31.09978 0,0 8.63249,-19.76786 13.88383,-26.24044 5.97005,-7.35843 13.78609,-14.28005 20.25645,-18.90174 6.80306,-4.85935 9.50499,-6.74207 12.58087,-9.01463 15.78836,-11.66493 16.57925,-7.65006 16.57925,-7.65006 0,0 3.87205,0.24239 -11.53753,26.78184 -17.22282,29.66234 -12.20212,29.28911 -12.20212,29.28911 0,0 -1.28899,8.96498 32.03388,-36.45697 3.572,-4.86895 25.90539,-26.91398 40.18178,-36.85545 15.92377,-11.08863 19.12328,-10.18634 18.91809,-10.03244 0,0 3.85139,1.4129 -7.82259,24.93748 -5.75389,11.59484 -25.40332,51.20751 -28.45776,58.70478 -3.05444,7.49727 -4.0304,10.99206 -7.6402,20.71074 -3.6098,9.71868 -0.55535,13.88383 -0.55535,13.88383 0,0 4.76504,4.35162 15.22457,-3.74454 25.9818,-20.11113 81.68457,-83.16825 81.68457,-83.16825"
     id="path92"
     inkscape:connector-curvature="0"
     sodipodi:nodetypes="cccccsscscsssccsssccsccscsscsscsssscccsccssscccscsccssscscsccscssscscsscssscsc" />
</svg>
